<mxfile host="app.diagrams.net" modified="2023-10-27T02:17:26.975Z" agent="Mozilla/5.0 (Windows NT 10.0; Win64; x64) AppleWebKit/537.36 (KHTML, like Gecko) Chrome/118.0.0.0 Safari/537.36 Edg/118.0.2088.69" etag="BgG0j_Gkv4_1b3o7ETwi" version="22.0.8" type="google">
  <diagram name="Page-1" id="HOKcMDYY6HpK9kPxWc_k">
    <mxGraphModel dx="1380" dy="632" grid="1" gridSize="10" guides="1" tooltips="1" connect="1" arrows="1" fold="1" page="1" pageScale="1" pageWidth="850" pageHeight="1100" math="0" shadow="0">
      <root>
        <mxCell id="0" />
        <mxCell id="1" parent="0" />
        <mxCell id="0HazRZL2efT4YU-8qofj-8" value="" style="edgeStyle=orthogonalEdgeStyle;rounded=0;orthogonalLoop=1;jettySize=auto;html=1;" edge="1" parent="1" source="0HazRZL2efT4YU-8qofj-1" target="0HazRZL2efT4YU-8qofj-7">
          <mxGeometry relative="1" as="geometry" />
        </mxCell>
        <mxCell id="0HazRZL2efT4YU-8qofj-1" value="start" style="ellipse;whiteSpace=wrap;html=1;" vertex="1" parent="1">
          <mxGeometry x="380" y="30" width="120" height="50" as="geometry" />
        </mxCell>
        <mxCell id="0HazRZL2efT4YU-8qofj-10" value="" style="edgeStyle=orthogonalEdgeStyle;rounded=0;orthogonalLoop=1;jettySize=auto;html=1;" edge="1" parent="1" source="0HazRZL2efT4YU-8qofj-7" target="0HazRZL2efT4YU-8qofj-9">
          <mxGeometry relative="1" as="geometry" />
        </mxCell>
        <mxCell id="0HazRZL2efT4YU-8qofj-7" value="requesting&lt;br&gt;customer gives return /exchange" style="whiteSpace=wrap;html=1;" vertex="1" parent="1">
          <mxGeometry x="380" y="110" width="120" height="50" as="geometry" />
        </mxCell>
        <mxCell id="0HazRZL2efT4YU-8qofj-12" value="" style="edgeStyle=orthogonalEdgeStyle;rounded=0;orthogonalLoop=1;jettySize=auto;html=1;" edge="1" parent="1" source="0HazRZL2efT4YU-8qofj-9" target="0HazRZL2efT4YU-8qofj-11">
          <mxGeometry relative="1" as="geometry" />
        </mxCell>
        <mxCell id="0HazRZL2efT4YU-8qofj-9" value="reasons for request&amp;nbsp;&lt;br&gt;of exchange or&amp;nbsp;&lt;br&gt;return" style="whiteSpace=wrap;html=1;" vertex="1" parent="1">
          <mxGeometry x="380" y="200" width="120" height="60" as="geometry" />
        </mxCell>
        <mxCell id="0HazRZL2efT4YU-8qofj-16" value="" style="edgeStyle=orthogonalEdgeStyle;rounded=0;orthogonalLoop=1;jettySize=auto;html=1;" edge="1" parent="1" source="0HazRZL2efT4YU-8qofj-11" target="0HazRZL2efT4YU-8qofj-15">
          <mxGeometry relative="1" as="geometry" />
        </mxCell>
        <mxCell id="0HazRZL2efT4YU-8qofj-18" value="" style="edgeStyle=orthogonalEdgeStyle;rounded=0;orthogonalLoop=1;jettySize=auto;html=1;" edge="1" parent="1" source="0HazRZL2efT4YU-8qofj-11" target="0HazRZL2efT4YU-8qofj-17">
          <mxGeometry relative="1" as="geometry" />
        </mxCell>
        <mxCell id="0HazRZL2efT4YU-8qofj-21" value="" style="edgeStyle=orthogonalEdgeStyle;rounded=0;orthogonalLoop=1;jettySize=auto;html=1;" edge="1" parent="1" source="0HazRZL2efT4YU-8qofj-11" target="0HazRZL2efT4YU-8qofj-20">
          <mxGeometry relative="1" as="geometry" />
        </mxCell>
        <mxCell id="0HazRZL2efT4YU-8qofj-11" value="request accepted" style="rhombus;whiteSpace=wrap;html=1;" vertex="1" parent="1">
          <mxGeometry x="400" y="290" width="80" height="70" as="geometry" />
        </mxCell>
        <mxCell id="0HazRZL2efT4YU-8qofj-27" value="" style="edgeStyle=orthogonalEdgeStyle;rounded=0;orthogonalLoop=1;jettySize=auto;html=1;" edge="1" parent="1" source="0HazRZL2efT4YU-8qofj-15" target="0HazRZL2efT4YU-8qofj-26">
          <mxGeometry relative="1" as="geometry" />
        </mxCell>
        <mxCell id="0HazRZL2efT4YU-8qofj-15" value="return money" style="whiteSpace=wrap;html=1;" vertex="1" parent="1">
          <mxGeometry x="480" y="430" width="120" height="50" as="geometry" />
        </mxCell>
        <mxCell id="0HazRZL2efT4YU-8qofj-17" value="requested not accepted" style="whiteSpace=wrap;html=1;" vertex="1" parent="1">
          <mxGeometry x="550" y="280" width="120" height="60" as="geometry" />
        </mxCell>
        <mxCell id="0HazRZL2efT4YU-8qofj-19" value="" style="endArrow=classic;html=1;rounded=0;entryX=1;entryY=0.6;entryDx=0;entryDy=0;entryPerimeter=0;" edge="1" parent="1" target="0HazRZL2efT4YU-8qofj-7">
          <mxGeometry width="50" height="50" relative="1" as="geometry">
            <mxPoint x="620" y="280" as="sourcePoint" />
            <mxPoint x="620" as="targetPoint" />
            <Array as="points">
              <mxPoint x="620" y="140" />
            </Array>
          </mxGeometry>
        </mxCell>
        <mxCell id="0HazRZL2efT4YU-8qofj-23" value="" style="edgeStyle=orthogonalEdgeStyle;rounded=0;orthogonalLoop=1;jettySize=auto;html=1;" edge="1" parent="1" source="0HazRZL2efT4YU-8qofj-20" target="0HazRZL2efT4YU-8qofj-22">
          <mxGeometry relative="1" as="geometry" />
        </mxCell>
        <mxCell id="0HazRZL2efT4YU-8qofj-20" value="exchange product" style="whiteSpace=wrap;html=1;" vertex="1" parent="1">
          <mxGeometry x="280" y="470" width="120" height="40" as="geometry" />
        </mxCell>
        <mxCell id="0HazRZL2efT4YU-8qofj-25" value="" style="edgeStyle=orthogonalEdgeStyle;rounded=0;orthogonalLoop=1;jettySize=auto;html=1;" edge="1" parent="1" source="0HazRZL2efT4YU-8qofj-22" target="0HazRZL2efT4YU-8qofj-24">
          <mxGeometry relative="1" as="geometry" />
        </mxCell>
        <mxCell id="0HazRZL2efT4YU-8qofj-22" value="select one product" style="whiteSpace=wrap;html=1;" vertex="1" parent="1">
          <mxGeometry x="280" y="540" width="120" height="30" as="geometry" />
        </mxCell>
        <mxCell id="0HazRZL2efT4YU-8qofj-24" value="order placed" style="whiteSpace=wrap;html=1;" vertex="1" parent="1">
          <mxGeometry x="280" y="600" width="120" height="40" as="geometry" />
        </mxCell>
        <mxCell id="0HazRZL2efT4YU-8qofj-26" value="stop" style="ellipse;whiteSpace=wrap;html=1;" vertex="1" parent="1">
          <mxGeometry x="500" y="680" width="80" height="50" as="geometry" />
        </mxCell>
        <mxCell id="0HazRZL2efT4YU-8qofj-28" value="" style="endArrow=classic;html=1;rounded=0;exitX=0.597;exitY=1.05;exitDx=0;exitDy=0;exitPerimeter=0;" edge="1" parent="1" source="0HazRZL2efT4YU-8qofj-24">
          <mxGeometry width="50" height="50" relative="1" as="geometry">
            <mxPoint x="360" y="650" as="sourcePoint" />
            <mxPoint x="500" y="710" as="targetPoint" />
            <Array as="points">
              <mxPoint x="350" y="710" />
            </Array>
          </mxGeometry>
        </mxCell>
        <mxCell id="0HazRZL2efT4YU-8qofj-29" value="yes" style="text;html=1;align=center;verticalAlign=middle;resizable=0;points=[];autosize=1;strokeColor=none;fillColor=none;" vertex="1" parent="1">
          <mxGeometry x="410" y="378" width="40" height="30" as="geometry" />
        </mxCell>
        <mxCell id="0HazRZL2efT4YU-8qofj-30" value="no" style="text;html=1;align=center;verticalAlign=middle;resizable=0;points=[];autosize=1;strokeColor=none;fillColor=none;" vertex="1" parent="1">
          <mxGeometry x="470" y="298" width="40" height="30" as="geometry" />
        </mxCell>
      </root>
    </mxGraphModel>
  </diagram>
</mxfile>
